# Blender v2.79 (sub 0) OBJ File: ''
# www.blender.org
mtllib BlenderBone.mtl
o Cube
v 0.000000 0.000000 0.000000
v 0.000000 2.000000 0.000000
v -0.189297 0.225751 0.189297
v -0.189297 0.225751 -0.189297
v 0.189297 0.225751 -0.189297
v 0.189297 0.225751 0.189297
v 0.000000 -0.108594 -0.108594
v 0.000000 -0.153576 0.000000
v 0.108594 0.108594 0.000000
v 0.153576 0.000000 0.000000
v 0.108594 -0.108594 0.000000
v 0.000000 0.108594 0.108595
v -0.000000 0.000000 0.153576
v 0.000000 -0.108594 0.108595
v -0.000000 0.153576 0.000000
v -0.108594 0.108594 0.000000
v -0.153576 0.000000 0.000000
v -0.108594 -0.108594 0.000000
v 0.000000 0.108594 -0.108594
v 0.000000 0.000000 -0.153576
vn -0.9944 0.1061 0.0000
vn 0.0000 0.1061 -0.9944
vn 0.9944 0.1061 0.0000
vn 0.0000 0.1061 0.9944
vn 0.0000 -0.6425 0.7663
vn 0.7663 -0.6425 0.0000
vn 0.0000 -0.6425 -0.7663
vn -0.7663 -0.6425 0.0000
vn 0.6786 -0.2811 -0.6786
vn 0.3574 0.8629 -0.3574
vn 0.3574 -0.8629 -0.3574
vn 0.6786 0.2811 -0.6786
vn 0.3574 -0.8629 0.3574
vn 0.6786 0.2811 0.6786
vn 0.6786 -0.2811 0.6786
vn 0.3574 0.8629 0.3574
vn -0.3574 0.8629 0.3574
vn -0.3574 -0.8629 0.3574
vn -0.6786 0.2811 0.6786
vn -0.6786 -0.2811 0.6786
vn -0.6786 -0.2811 -0.6786
vn -0.3574 0.8629 -0.3574
vn -0.3574 -0.8629 -0.3574
vn -0.6786 0.2811 -0.6786
usemtl None
s off
f 3//1 2//1 4//1
f 4//2 2//2 5//2
f 5//3 2//3 6//3
f 6//4 2//4 3//4
f 1//5 6//5 3//5
f 1//6 5//6 6//6
f 1//7 4//7 5//7
f 1//8 3//8 4//8
f 7//9 20//9 10//9 11//9
f 19//10 15//10 9//10
f 8//11 7//11 11//11
f 20//12 19//12 9//12 10//12
f 8//13 11//13 14//13
f 10//14 9//14 12//14 13//14
f 11//15 10//15 13//15 14//15
f 9//16 15//16 12//16
f 12//17 15//17 16//17
f 8//18 14//18 18//18
f 13//19 12//19 16//19 17//19
f 14//20 13//20 17//20 18//20
f 18//21 17//21 20//21 7//21
f 16//22 15//22 19//22
f 8//23 18//23 7//23
f 17//24 16//24 19//24 20//24
