# Blender v2.79 (sub 0) OBJ File: ''
# www.blender.org
mtllib SpookyBones.mtl
o Cube
v -0.034175 1.991182 0.102433
v -0.034175 1.991182 -0.102433
v 0.034175 1.991182 0.102433
v 0.034175 1.991182 -0.102433
v -0.102433 1.706871 0.102433
v -0.102433 1.706871 -0.102433
v 0.102433 1.706871 -0.102433
v 0.102433 1.706871 0.102433
v -0.195819 1.844881 0.069931
v -0.096657 2.042452 0.102433
v -0.096657 2.042452 -0.102433
v 0.096657 2.042452 -0.102433
v 0.096657 2.042452 0.102433
v -0.195819 1.844881 -0.069931
v 0.195819 1.844881 -0.069931
v 0.195819 1.844881 0.069931
v -0.068304 1.876953 0.153340
v -0.068304 1.876953 -0.153340
v 0.068304 1.876953 -0.153340
v 0.068304 1.876953 0.153340
v -0.205332 1.961081 0.102433
v -0.205332 1.961081 -0.102433
v 0.205332 1.961081 -0.102433
v 0.205332 1.961081 0.102433
v -0.034175 0.008818 0.102433
v -0.034175 0.008818 -0.102433
v 0.034175 0.008818 0.102433
v 0.034175 0.008818 -0.102433
v -0.102433 0.293129 0.102433
v -0.102433 0.293129 -0.102433
v 0.102433 0.293129 -0.102433
v 0.102433 0.293129 0.102433
v -0.195819 0.155119 0.069931
v -0.096657 -0.042452 0.102433
v -0.096657 -0.042452 -0.102433
v 0.096657 -0.042452 -0.102433
v 0.096657 -0.042452 0.102433
v -0.195819 0.155119 -0.069931
v 0.195819 0.155119 -0.069931
v 0.195819 0.155119 0.069931
v -0.068304 0.123047 0.153340
v -0.068304 0.123047 -0.153340
v 0.068304 0.123047 -0.153340
v 0.068304 0.123047 0.153340
v -0.205332 0.038919 0.102433
v -0.205332 0.038919 -0.102433
v 0.205332 0.038919 -0.102433
v 0.205332 0.038919 0.102433
vn 0.2665 0.3248 0.9075
vn 0.0000 0.4071 -0.9134
vn -0.2665 0.3248 -0.9075
vn 0.0000 0.4071 0.9134
vn 0.0000 1.0000 0.0000
vn 0.0000 0.0000 -1.0000
vn 1.0000 0.0000 0.0000
vn -0.5994 0.8005 0.0000
vn 0.5994 0.8005 0.0000
vn -0.8282 -0.5604 0.0000
vn -0.6343 0.7731 0.0000
vn 0.8282 -0.5604 0.0000
vn 0.4999 -0.2024 0.8421
vn 0.6343 0.7731 0.0000
vn -0.4999 -0.2024 -0.8421
vn -0.1932 0.2581 -0.9466
vn 0.1932 0.2581 0.9466
vn 0.9967 -0.0816 0.0000
vn -0.9967 -0.0816 0.0000
vn 0.0000 -0.2867 0.9580
vn 0.4999 -0.2024 -0.8421
vn 0.0000 -0.2867 -0.9580
vn -0.4999 -0.2024 0.8421
vn -0.2665 0.3248 0.9075
vn -0.1932 0.2581 0.9466
vn 0.1932 0.2581 -0.9466
vn 0.2665 0.3248 -0.9075
vn 0.2665 -0.3248 0.9075
vn 0.0000 -0.4071 -0.9134
vn -0.2665 -0.3248 -0.9075
vn 0.0000 -0.4071 0.9134
vn 0.0000 -1.0000 0.0000
vn -1.0000 0.0000 0.0000
vn 0.0000 0.0000 1.0000
vn -0.5994 -0.8005 0.0000
vn 0.5994 -0.8005 0.0000
vn -0.8282 0.5604 0.0000
vn -0.6343 -0.7731 0.0000
vn 0.8282 0.5604 0.0000
vn 0.4999 0.2024 0.8421
vn 0.6343 -0.7731 0.0000
vn -0.4999 0.2024 -0.8421
vn -0.1932 -0.2581 -0.9466
vn 0.1932 -0.2581 0.9466
vn 0.9967 0.0816 0.0000
vn -0.9967 0.0816 0.0000
vn 0.0000 0.2867 0.9580
vn 0.4999 0.2024 -0.8421
vn 0.0000 0.2867 -0.9580
vn -0.4999 0.2024 0.8421
vn -0.2665 -0.3248 0.9075
vn -0.1932 -0.2581 0.9466
vn 0.1932 -0.2581 -0.9466
vn 0.2665 -0.3248 -0.9075
usemtl None
s off
f 17//1 1//1 10//1
f 18//2 2//2 4//2 19//2
f 19//3 4//3 12//3
f 20//4 3//4 1//4 17//4
f 4//5 2//5 1//5 3//5
f 6//6 7//6 31//6 30//6
f 31//7 7//7 8//7 32//7
f 21//8 10//8 11//8 22//8
f 23//9 12//9 13//9 24//9
f 6//10 5//10 9//10 14//10
f 4//11 3//11 13//11 12//11
f 8//12 7//12 15//12 16//12
f 20//13 8//13 16//13 24//13
f 1//14 2//14 11//14 10//14
f 18//15 6//15 14//15 22//15
f 18//16 22//16 11//16
f 20//17 24//17 13//17
f 15//18 23//18 24//18 16//18
f 9//19 21//19 22//19 14//19
f 8//20 20//20 17//20 5//20
f 7//21 19//21 23//21 15//21
f 6//22 18//22 19//22 7//22
f 5//23 17//23 21//23 9//23
f 3//24 20//24 13//24
f 21//25 17//25 10//25
f 23//26 19//26 12//26
f 2//27 18//27 11//27
f 41//28 34//28 25//28
f 42//29 43//29 28//29 26//29
f 43//30 36//30 28//30
f 44//31 41//31 25//31 27//31
f 28//32 27//32 25//32 26//32
f 5//33 6//33 30//33 29//33
f 5//34 29//34 32//34 8//34
f 45//35 46//35 35//35 34//35
f 47//36 48//36 37//36 36//36
f 30//37 38//37 33//37 29//37
f 28//38 36//38 37//38 27//38
f 32//39 40//39 39//39 31//39
f 44//40 48//40 40//40 32//40
f 25//41 34//41 35//41 26//41
f 42//42 46//42 38//42 30//42
f 42//43 35//43 46//43
f 44//44 37//44 48//44
f 39//45 40//45 48//45 47//45
f 33//46 38//46 46//46 45//46
f 32//47 29//47 41//47 44//47
f 31//48 39//48 47//48 43//48
f 30//49 31//49 43//49 42//49
f 29//50 33//50 45//50 41//50
f 27//51 37//51 44//51
f 45//52 34//52 41//52
f 47//53 36//53 43//53
f 26//54 35//54 42//54
