# Blender v2.79 (sub 0) OBJ File: ''
# www.blender.org
mtllib Unreal Engine Bone.mtl
o Cylinder
v 0.000000 -0.196459 -0.000000
v 0.142158 -0.087860 0.103283
v -0.054298 -0.087860 0.167116
v -0.175718 -0.087860 -0.000000
v -0.054298 -0.087860 -0.167116
v 0.142158 -0.087860 -0.103283
v 0.054298 0.087860 0.167116
v -0.142158 0.087860 0.103283
v -0.142158 0.087860 -0.103283
v 0.054298 0.087860 -0.167116
v 0.175718 0.087860 -0.000000
v -0.000000 2.001657 -0.000000
v -0.000000 0.209494 -0.000000
vn 0.1876 -0.7947 0.5774
vn 0.6071 -0.7947 0.0000
vn -0.4911 -0.7947 0.3568
vn -0.4911 -0.7947 -0.3568
vn 0.1876 -0.7947 -0.5774
vn 0.9822 -0.1876 0.0000
vn 0.3035 -0.1876 0.9342
vn -0.7946 -0.1876 0.5774
vn -0.7946 -0.1876 -0.5774
vn 0.3035 -0.1876 -0.9342
vn 0.7946 0.1876 0.5774
vn -0.3035 0.1876 0.9342
vn -0.9822 0.1876 0.0000
vn -0.3035 0.1876 -0.9342
vn 0.7946 0.1876 -0.5774
vn -0.3082 0.0741 0.9484
vn 0.8068 0.0741 -0.5862
vn -0.9973 0.0741 0.0000
vn 0.8068 0.0741 0.5862
vn -0.3082 0.0741 -0.9484
vn 0.6501 -0.7598 0.0000
vn -0.5260 -0.7598 -0.3821
vn 0.2009 -0.7598 0.6183
vn 0.2009 -0.7598 -0.6183
vn -0.5260 -0.7598 0.3821
usemtl None
s off
f 1//1 2//1 3//1
f 2//2 1//2 6//2
f 1//3 3//3 4//3
f 1//4 4//4 5//4
f 1//5 5//5 6//5
f 2//6 6//6 11//6
f 3//7 2//7 7//7
f 4//8 3//8 8//8
f 5//9 4//9 9//9
f 6//10 5//10 10//10
f 2//11 11//11 7//11
f 3//12 7//12 8//12
f 4//13 8//13 9//13
f 5//14 9//14 10//14
f 6//15 10//15 11//15
f 8//16 7//16 12//16
f 11//17 10//17 12//17
f 9//18 8//18 12//18
f 7//19 11//19 12//19
f 10//20 9//20 12//20
f 8//21 9//21 13//21
f 11//22 7//22 13//22
f 9//23 10//23 13//23
f 7//24 8//24 13//24
f 10//25 11//25 13//25
